<mxfile host="65bd71144e">
    <diagram id="ct0wZTnxtDoCHGSKTAOt" name="Page-1">
        <mxGraphModel dx="1196" dy="852" grid="0" gridSize="10" guides="1" tooltips="1" connect="1" arrows="1" fold="1" page="1" pageScale="1" pageWidth="4681" pageHeight="3300" math="0" shadow="0">
            <root>
                <mxCell id="0"/>
                <mxCell id="1" parent="0"/>
                <mxCell id="2" value="1" style="rounded=0;whiteSpace=wrap;html=1;hachureGap=4;fontFamily=Helvetica;fontSize=20;sketch=1;curveFitting=1;jiggle=2;" parent="1" vertex="1">
                    <mxGeometry x="185" y="50" width="50" height="50" as="geometry"/>
                </mxCell>
                <mxCell id="3" value="2" style="rounded=0;whiteSpace=wrap;html=1;hachureGap=4;fontFamily=Helvetica;fontSize=20;sketch=1;curveFitting=1;jiggle=2;" parent="1" vertex="1">
                    <mxGeometry x="235" y="50" width="50" height="50" as="geometry"/>
                </mxCell>
                <mxCell id="4" value="3" style="rounded=0;whiteSpace=wrap;html=1;hachureGap=4;fontFamily=Helvetica;fontSize=20;sketch=1;curveFitting=1;jiggle=2;" parent="1" vertex="1">
                    <mxGeometry x="285" y="50" width="50" height="50" as="geometry"/>
                </mxCell>
                <mxCell id="5" value="4" style="rounded=0;whiteSpace=wrap;html=1;hachureGap=4;fontFamily=Helvetica;fontSize=20;sketch=1;curveFitting=1;jiggle=2;" parent="1" vertex="1">
                    <mxGeometry x="335" y="50" width="50" height="50" as="geometry"/>
                </mxCell>
                <mxCell id="6" value="5" style="rounded=0;whiteSpace=wrap;html=1;hachureGap=4;fontFamily=Helvetica;fontSize=20;sketch=1;curveFitting=1;jiggle=2;" parent="1" vertex="1">
                    <mxGeometry x="385" y="50" width="50" height="50" as="geometry"/>
                </mxCell>
                <mxCell id="28" value="" style="edgeStyle=none;html=1;fontSize=16;fontFamily=Helvetica;sketch=1;curveFitting=1;jiggle=2;" parent="1" source="7" target="8" edge="1">
                    <mxGeometry relative="1" as="geometry"/>
                </mxCell>
                <mxCell id="7" value="1" style="rounded=0;whiteSpace=wrap;html=1;hachureGap=4;fontFamily=Helvetica;fontSize=20;sketch=1;curveFitting=1;jiggle=2;" parent="1" vertex="1">
                    <mxGeometry x="185" y="141" width="50" height="50" as="geometry"/>
                </mxCell>
                <mxCell id="29" value="" style="edgeStyle=none;html=1;fontSize=16;fontFamily=Helvetica;sketch=1;curveFitting=1;jiggle=2;" parent="1" source="8" target="9" edge="1">
                    <mxGeometry relative="1" as="geometry"/>
                </mxCell>
                <mxCell id="8" value="2" style="rounded=0;whiteSpace=wrap;html=1;hachureGap=4;fontFamily=Helvetica;fontSize=20;sketch=1;curveFitting=1;jiggle=2;" parent="1" vertex="1">
                    <mxGeometry x="275" y="141" width="50" height="50" as="geometry"/>
                </mxCell>
                <mxCell id="30" value="" style="edgeStyle=none;html=1;fontSize=16;fontFamily=Helvetica;sketch=1;curveFitting=1;jiggle=2;" parent="1" source="9" target="10" edge="1">
                    <mxGeometry relative="1" as="geometry"/>
                </mxCell>
                <mxCell id="9" value="3" style="rounded=0;whiteSpace=wrap;html=1;hachureGap=4;fontFamily=Helvetica;fontSize=20;sketch=1;curveFitting=1;jiggle=2;" parent="1" vertex="1">
                    <mxGeometry x="365" y="141" width="50" height="50" as="geometry"/>
                </mxCell>
                <mxCell id="31" value="" style="edgeStyle=none;html=1;fontSize=16;fontFamily=Helvetica;sketch=1;curveFitting=1;jiggle=2;" parent="1" source="10" target="11" edge="1">
                    <mxGeometry relative="1" as="geometry"/>
                </mxCell>
                <mxCell id="10" value="4" style="rounded=0;whiteSpace=wrap;html=1;hachureGap=4;fontFamily=Helvetica;fontSize=20;sketch=1;curveFitting=1;jiggle=2;" parent="1" vertex="1">
                    <mxGeometry x="455" y="141" width="50" height="50" as="geometry"/>
                </mxCell>
                <mxCell id="11" value="5" style="rounded=0;whiteSpace=wrap;html=1;hachureGap=4;fontFamily=Helvetica;fontSize=20;sketch=1;curveFitting=1;jiggle=2;" parent="1" vertex="1">
                    <mxGeometry x="545" y="141" width="50" height="50" as="geometry"/>
                </mxCell>
                <mxCell id="12" value="1" style="rounded=0;whiteSpace=wrap;html=1;hachureGap=4;fontFamily=Helvetica;fontSize=20;sketch=1;curveFitting=1;jiggle=2;" parent="1" vertex="1">
                    <mxGeometry x="190" y="241" width="50" height="50" as="geometry"/>
                </mxCell>
                <mxCell id="13" value="2" style="rounded=0;whiteSpace=wrap;html=1;hachureGap=4;fontFamily=Helvetica;fontSize=20;sketch=1;curveFitting=1;jiggle=2;" parent="1" vertex="1">
                    <mxGeometry x="240" y="241" width="50" height="50" as="geometry"/>
                </mxCell>
                <mxCell id="14" value="3" style="rounded=0;whiteSpace=wrap;html=1;hachureGap=4;fontFamily=Helvetica;fontSize=20;sketch=1;curveFitting=1;jiggle=2;" parent="1" vertex="1">
                    <mxGeometry x="290" y="241" width="50" height="50" as="geometry"/>
                </mxCell>
                <mxCell id="15" value="4" style="rounded=0;whiteSpace=wrap;html=1;hachureGap=4;fontFamily=Helvetica;fontSize=20;sketch=1;curveFitting=1;jiggle=2;" parent="1" vertex="1">
                    <mxGeometry x="340" y="241" width="50" height="50" as="geometry"/>
                </mxCell>
                <mxCell id="16" value="5" style="rounded=0;whiteSpace=wrap;html=1;hachureGap=4;fontFamily=Helvetica;fontSize=20;sketch=1;curveFitting=1;jiggle=2;" parent="1" vertex="1">
                    <mxGeometry x="390" y="241" width="50" height="50" as="geometry"/>
                </mxCell>
                <mxCell id="17" value="" style="shape=partialRectangle;whiteSpace=wrap;html=1;bottom=1;right=1;left=1;top=0;fillColor=none;routingCenterX=-0.5;direction=north;fontFamily=Helvetica;sketch=1;curveFitting=1;jiggle=2;" parent="1" vertex="1">
                    <mxGeometry x="185" y="231" width="265" height="70" as="geometry"/>
                </mxCell>
                <mxCell id="18" value="" style="shape=partialRectangle;whiteSpace=wrap;html=1;left=0;right=0;fillColor=none;fontFamily=Helvetica;sketch=1;curveFitting=1;jiggle=2;" parent="1" vertex="1">
                    <mxGeometry x="185" y="341" width="270" height="70" as="geometry"/>
                </mxCell>
                <mxCell id="19" value="1" style="rounded=0;whiteSpace=wrap;html=1;hachureGap=4;fontFamily=Helvetica;fontSize=20;sketch=1;curveFitting=1;jiggle=2;" parent="1" vertex="1">
                    <mxGeometry x="192.5" y="351" width="50" height="50" as="geometry"/>
                </mxCell>
                <mxCell id="20" value="2" style="rounded=0;whiteSpace=wrap;html=1;hachureGap=4;fontFamily=Helvetica;fontSize=20;sketch=1;curveFitting=1;jiggle=2;" parent="1" vertex="1">
                    <mxGeometry x="242.5" y="351" width="50" height="50" as="geometry"/>
                </mxCell>
                <mxCell id="21" value="3" style="rounded=0;whiteSpace=wrap;html=1;hachureGap=4;fontFamily=Helvetica;fontSize=20;sketch=1;curveFitting=1;jiggle=2;" parent="1" vertex="1">
                    <mxGeometry x="292.5" y="351" width="50" height="50" as="geometry"/>
                </mxCell>
                <mxCell id="22" value="4" style="rounded=0;whiteSpace=wrap;html=1;hachureGap=4;fontFamily=Helvetica;fontSize=20;sketch=1;curveFitting=1;jiggle=2;" parent="1" vertex="1">
                    <mxGeometry x="342.5" y="351" width="50" height="50" as="geometry"/>
                </mxCell>
                <mxCell id="23" value="5" style="rounded=0;whiteSpace=wrap;html=1;hachureGap=4;fontFamily=Helvetica;fontSize=20;sketch=1;curveFitting=1;jiggle=2;" parent="1" vertex="1">
                    <mxGeometry x="392.5" y="351" width="50" height="50" as="geometry"/>
                </mxCell>
                <mxCell id="24" value="数组 array" style="text;html=1;align=center;verticalAlign=middle;resizable=0;points=[];autosize=1;strokeColor=none;fillColor=none;fontSize=16;sketch=1;curveFitting=1;jiggle=2;" parent="1" vertex="1">
                    <mxGeometry x="55" y="60" width="100" height="30" as="geometry"/>
                </mxCell>
                <mxCell id="25" value="链表 linked list" style="text;html=1;align=center;verticalAlign=middle;resizable=0;points=[];autosize=1;strokeColor=none;fillColor=none;fontSize=16;sketch=1;curveFitting=1;jiggle=2;" parent="1" vertex="1">
                    <mxGeometry x="40" y="151" width="130" height="30" as="geometry"/>
                </mxCell>
                <mxCell id="26" value="栈 stack" style="text;html=1;align=center;verticalAlign=middle;resizable=0;points=[];autosize=1;strokeColor=none;fillColor=none;fontSize=16;sketch=1;curveFitting=1;jiggle=2;" parent="1" vertex="1">
                    <mxGeometry x="65" y="251" width="80" height="30" as="geometry"/>
                </mxCell>
                <mxCell id="27" value="队列 queue" style="text;html=1;align=center;verticalAlign=middle;resizable=0;points=[];autosize=1;strokeColor=none;fillColor=none;fontSize=16;sketch=1;curveFitting=1;jiggle=2;" parent="1" vertex="1">
                    <mxGeometry x="55" y="361" width="100" height="30" as="geometry"/>
                </mxCell>
                <mxCell id="36" style="edgeStyle=none;html=1;entryX=0.728;entryY=0.076;entryDx=0;entryDy=0;entryPerimeter=0;fontFamily=Helvetica;fontSize=16;sketch=1;curveFitting=1;jiggle=2;" parent="1" source="32" target="34" edge="1">
                    <mxGeometry relative="1" as="geometry"/>
                </mxCell>
                <mxCell id="37" style="edgeStyle=none;html=1;entryX=0.309;entryY=0.043;entryDx=0;entryDy=0;entryPerimeter=0;fontFamily=Helvetica;fontSize=16;sketch=1;curveFitting=1;jiggle=2;" parent="1" source="32" target="35" edge="1">
                    <mxGeometry relative="1" as="geometry"/>
                </mxCell>
                <mxCell id="32" value="1" style="ellipse;whiteSpace=wrap;html=1;aspect=fixed;fontFamily=Helvetica;fontSize=16;sketch=1;curveFitting=1;jiggle=2;" parent="1" vertex="1">
                    <mxGeometry x="867" y="16" width="50" height="50" as="geometry"/>
                </mxCell>
                <mxCell id="57" style="edgeStyle=none;html=1;entryX=0.267;entryY=0.019;entryDx=0;entryDy=0;fontFamily=Helvetica;fontSize=16;entryPerimeter=0;sketch=1;curveFitting=1;jiggle=2;" parent="1" source="34" target="55" edge="1">
                    <mxGeometry relative="1" as="geometry"/>
                </mxCell>
                <mxCell id="60" style="edgeStyle=none;html=1;entryX=0.685;entryY=0.063;entryDx=0;entryDy=0;fontFamily=Helvetica;fontSize=16;entryPerimeter=0;sketch=1;curveFitting=1;jiggle=2;" parent="1" source="34" target="54" edge="1">
                    <mxGeometry relative="1" as="geometry"/>
                </mxCell>
                <mxCell id="34" value="2" style="ellipse;whiteSpace=wrap;html=1;aspect=fixed;fontFamily=Helvetica;fontSize=16;sketch=1;curveFitting=1;jiggle=2;" parent="1" vertex="1">
                    <mxGeometry x="792" y="97" width="50" height="50" as="geometry"/>
                </mxCell>
                <mxCell id="61" style="edgeStyle=none;html=1;fontFamily=Helvetica;fontSize=16;sketch=1;curveFitting=1;jiggle=2;" parent="1" source="35" target="58" edge="1">
                    <mxGeometry relative="1" as="geometry"/>
                </mxCell>
                <mxCell id="62" style="edgeStyle=none;html=1;fontFamily=Helvetica;fontSize=16;sketch=1;curveFitting=1;jiggle=2;" parent="1" source="35" target="59" edge="1">
                    <mxGeometry relative="1" as="geometry">
                        <mxPoint x="987" y="166" as="targetPoint"/>
                    </mxGeometry>
                </mxCell>
                <mxCell id="35" value="3" style="ellipse;whiteSpace=wrap;html=1;aspect=fixed;fontFamily=Helvetica;fontSize=16;sketch=1;curveFitting=1;jiggle=2;" parent="1" vertex="1">
                    <mxGeometry x="937" y="97" width="50" height="50" as="geometry"/>
                </mxCell>
                <mxCell id="54" value="4" style="ellipse;whiteSpace=wrap;html=1;aspect=fixed;fontFamily=Helvetica;fontSize=16;sketch=1;curveFitting=1;jiggle=2;" parent="1" vertex="1">
                    <mxGeometry x="757" y="167" width="50" height="50" as="geometry"/>
                </mxCell>
                <mxCell id="55" value="5" style="ellipse;whiteSpace=wrap;html=1;aspect=fixed;fontFamily=Helvetica;fontSize=16;sketch=1;curveFitting=1;jiggle=2;" parent="1" vertex="1">
                    <mxGeometry x="827" y="167" width="50" height="50" as="geometry"/>
                </mxCell>
                <mxCell id="58" value="6" style="ellipse;whiteSpace=wrap;html=1;aspect=fixed;fontFamily=Helvetica;fontSize=16;sketch=1;curveFitting=1;jiggle=2;" parent="1" vertex="1">
                    <mxGeometry x="902" y="167" width="50" height="50" as="geometry"/>
                </mxCell>
                <mxCell id="59" value="7" style="ellipse;whiteSpace=wrap;html=1;aspect=fixed;fontFamily=Helvetica;fontSize=16;sketch=1;curveFitting=1;jiggle=2;" parent="1" vertex="1">
                    <mxGeometry x="972" y="167" width="50" height="50" as="geometry"/>
                </mxCell>
                <mxCell id="63" value="树 tree" style="text;html=1;align=center;verticalAlign=middle;resizable=0;points=[];autosize=1;strokeColor=none;fillColor=none;fontSize=16;sketch=1;curveFitting=1;jiggle=2;" parent="1" vertex="1">
                    <mxGeometry x="687" y="87" width="70" height="30" as="geometry"/>
                </mxCell>
                <mxCell id="64" style="edgeStyle=none;html=1;entryX=0.98;entryY=0.333;entryDx=0;entryDy=0;entryPerimeter=0;fontFamily=Helvetica;fontSize=16;sketch=1;curveFitting=1;jiggle=2;startArrow=none;startFill=0;endArrow=none;endFill=0;" parent="1" source="66" target="69" edge="1">
                    <mxGeometry relative="1" as="geometry"/>
                </mxCell>
                <mxCell id="65" style="edgeStyle=none;html=1;entryX=0.027;entryY=0.373;entryDx=0;entryDy=0;fontFamily=Helvetica;fontSize=16;entryPerimeter=0;sketch=1;curveFitting=1;jiggle=2;endArrow=none;endFill=0;" parent="1" source="66" target="72" edge="1">
                    <mxGeometry relative="1" as="geometry"/>
                </mxCell>
                <mxCell id="81" style="edgeStyle=none;html=1;entryX=0.573;entryY=0.034;entryDx=0;entryDy=0;fontFamily=Helvetica;fontSize=16;entryPerimeter=0;sketch=1;curveFitting=1;jiggle=2;endArrow=none;endFill=0;" parent="1" source="66" target="76" edge="1">
                    <mxGeometry relative="1" as="geometry"/>
                </mxCell>
                <mxCell id="66" value="1" style="ellipse;whiteSpace=wrap;html=1;aspect=fixed;fontFamily=Helvetica;fontSize=16;sketch=1;curveFitting=1;jiggle=2;" parent="1" vertex="1">
                    <mxGeometry x="902" y="267" width="50" height="50" as="geometry"/>
                </mxCell>
                <mxCell id="67" style="edgeStyle=none;html=1;entryX=0.267;entryY=0.07;entryDx=0;entryDy=0;fontFamily=Helvetica;fontSize=16;entryPerimeter=0;sketch=1;curveFitting=1;jiggle=2;endArrow=none;endFill=0;" parent="1" source="69" target="74" edge="1">
                    <mxGeometry relative="1" as="geometry"/>
                </mxCell>
                <mxCell id="68" style="edgeStyle=none;html=1;fontFamily=Helvetica;fontSize=16;sketch=1;curveFitting=1;jiggle=2;endArrow=none;endFill=0;" parent="1" source="69" edge="1">
                    <mxGeometry relative="1" as="geometry">
                        <mxPoint x="789" y="426" as="targetPoint"/>
                    </mxGeometry>
                </mxCell>
                <mxCell id="69" value="2" style="ellipse;whiteSpace=wrap;html=1;aspect=fixed;fontFamily=Helvetica;fontSize=16;sketch=1;curveFitting=1;jiggle=2;" parent="1" vertex="1">
                    <mxGeometry x="777" y="308" width="50" height="50" as="geometry"/>
                </mxCell>
                <mxCell id="70" style="edgeStyle=none;html=1;fontFamily=Helvetica;fontSize=16;sketch=1;curveFitting=1;jiggle=2;endArrow=none;endFill=0;" parent="1" source="72" target="75" edge="1">
                    <mxGeometry relative="1" as="geometry"/>
                </mxCell>
                <mxCell id="71" style="edgeStyle=none;html=1;fontFamily=Helvetica;fontSize=16;entryX=0.967;entryY=0.327;entryDx=0;entryDy=0;entryPerimeter=0;sketch=1;curveFitting=1;jiggle=2;endArrow=none;endFill=0;" parent="1" source="72" target="76" edge="1">
                    <mxGeometry relative="1" as="geometry">
                        <mxPoint x="987" y="397" as="targetPoint"/>
                    </mxGeometry>
                </mxCell>
                <mxCell id="72" value="3" style="ellipse;whiteSpace=wrap;html=1;aspect=fixed;fontFamily=Helvetica;fontSize=16;sketch=1;curveFitting=1;jiggle=2;" parent="1" vertex="1">
                    <mxGeometry x="1002" y="298" width="50" height="50" as="geometry"/>
                </mxCell>
                <mxCell id="79" style="edgeStyle=none;html=1;fontFamily=Helvetica;fontSize=16;sketch=1;curveFitting=1;jiggle=2;endArrow=none;endFill=0;" parent="1" source="73" target="74" edge="1">
                    <mxGeometry relative="1" as="geometry"/>
                </mxCell>
                <mxCell id="73" value="4" style="ellipse;whiteSpace=wrap;html=1;aspect=fixed;fontFamily=Helvetica;fontSize=16;sketch=1;curveFitting=1;jiggle=2;" parent="1" vertex="1">
                    <mxGeometry x="762" y="427" width="50" height="50" as="geometry"/>
                </mxCell>
                <mxCell id="83" style="edgeStyle=none;html=1;entryX=0;entryY=0.5;entryDx=0;entryDy=0;fontFamily=Helvetica;fontSize=16;sketch=1;curveFitting=1;jiggle=2;endArrow=none;endFill=0;" parent="1" source="74" target="75" edge="1">
                    <mxGeometry relative="1" as="geometry"/>
                </mxCell>
                <mxCell id="74" value="5" style="ellipse;whiteSpace=wrap;html=1;aspect=fixed;fontFamily=Helvetica;fontSize=16;sketch=1;curveFitting=1;jiggle=2;" parent="1" vertex="1">
                    <mxGeometry x="867" y="466" width="50" height="50" as="geometry"/>
                </mxCell>
                <mxCell id="80" style="edgeStyle=none;html=1;fontFamily=Helvetica;fontSize=16;sketch=1;curveFitting=1;jiggle=2;endArrow=none;endFill=0;entryX=0.965;entryY=0.742;entryDx=0;entryDy=0;entryPerimeter=0;" parent="1" source="75" target="76" edge="1">
                    <mxGeometry relative="1" as="geometry">
                        <mxPoint x="932" y="411" as="targetPoint"/>
                    </mxGeometry>
                </mxCell>
                <mxCell id="75" value="6" style="ellipse;whiteSpace=wrap;html=1;aspect=fixed;fontFamily=Helvetica;fontSize=16;sketch=1;curveFitting=1;jiggle=2;" parent="1" vertex="1">
                    <mxGeometry x="1002" y="456" width="50" height="50" as="geometry"/>
                </mxCell>
                <mxCell id="82" style="edgeStyle=none;html=1;fontFamily=Helvetica;fontSize=16;entryX=0.94;entryY=0.707;entryDx=0;entryDy=0;entryPerimeter=0;sketch=1;curveFitting=1;jiggle=2;endArrow=none;endFill=0;" parent="1" source="76" target="69" edge="1">
                    <mxGeometry relative="1" as="geometry">
                        <mxPoint x="832" y="336" as="targetPoint"/>
                    </mxGeometry>
                </mxCell>
                <mxCell id="76" value="7" style="ellipse;whiteSpace=wrap;html=1;aspect=fixed;fontFamily=Helvetica;fontSize=16;sketch=1;curveFitting=1;jiggle=2;" parent="1" vertex="1">
                    <mxGeometry x="887" y="377" width="50" height="50" as="geometry"/>
                </mxCell>
                <mxCell id="77" value="图 graph" style="text;html=1;align=center;verticalAlign=middle;resizable=0;points=[];autosize=1;strokeColor=none;fillColor=none;fontSize=16;sketch=1;curveFitting=1;jiggle=2;" parent="1" vertex="1">
                    <mxGeometry x="682" y="318" width="80" height="30" as="geometry"/>
                </mxCell>
                <mxCell id="87" value="" style="shape=table;startSize=0;container=1;collapsible=0;childLayout=tableLayout;sketch=1;hachureGap=4;jiggle=2;curveFitting=1;fontFamily=Helvetica;fontSize=20;" parent="1" vertex="1">
                    <mxGeometry x="155" y="644" width="360" height="360" as="geometry"/>
                </mxCell>
                <mxCell id="88" value="" style="shape=tableRow;horizontal=0;startSize=0;swimlaneHead=0;swimlaneBody=0;top=0;left=0;bottom=0;right=0;collapsible=0;dropTarget=0;fillColor=none;points=[[0,0.5],[1,0.5]];portConstraint=eastwest;sketch=1;hachureGap=4;jiggle=2;curveFitting=1;fontFamily=Architects Daughter;fontSource=https%3A%2F%2Ffonts.googleapis.com%2Fcss%3Ffamily%3DArchitects%2BDaughter;fontSize=20;" parent="87" vertex="1">
                    <mxGeometry width="360" height="60" as="geometry"/>
                </mxCell>
                <mxCell id="89" value="" style="shape=partialRectangle;html=1;whiteSpace=wrap;connectable=0;overflow=hidden;fillColor=none;top=0;left=0;bottom=0;right=0;pointerEvents=1;sketch=1;hachureGap=4;jiggle=2;curveFitting=1;fontFamily=Architects Daughter;fontSource=https%3A%2F%2Ffonts.googleapis.com%2Fcss%3Ffamily%3DArchitects%2BDaughter;fontSize=20;" parent="88" vertex="1">
                    <mxGeometry width="60" height="60" as="geometry">
                        <mxRectangle width="60" height="60" as="alternateBounds"/>
                    </mxGeometry>
                </mxCell>
                <mxCell id="90" value="" style="shape=partialRectangle;html=1;whiteSpace=wrap;connectable=0;overflow=hidden;fillColor=none;top=0;left=0;bottom=0;right=0;pointerEvents=1;sketch=1;hachureGap=4;jiggle=2;curveFitting=1;fontFamily=Architects Daughter;fontSource=https%3A%2F%2Ffonts.googleapis.com%2Fcss%3Ffamily%3DArchitects%2BDaughter;fontSize=20;" parent="88" vertex="1">
                    <mxGeometry x="60" width="60" height="60" as="geometry">
                        <mxRectangle width="60" height="60" as="alternateBounds"/>
                    </mxGeometry>
                </mxCell>
                <mxCell id="91" value="" style="shape=partialRectangle;html=1;whiteSpace=wrap;connectable=0;overflow=hidden;fillColor=none;top=0;left=0;bottom=0;right=0;pointerEvents=1;sketch=1;hachureGap=4;jiggle=2;curveFitting=1;fontFamily=Architects Daughter;fontSource=https%3A%2F%2Ffonts.googleapis.com%2Fcss%3Ffamily%3DArchitects%2BDaughter;fontSize=20;" parent="88" vertex="1">
                    <mxGeometry x="120" width="60" height="60" as="geometry">
                        <mxRectangle width="60" height="60" as="alternateBounds"/>
                    </mxGeometry>
                </mxCell>
                <mxCell id="92" value="" style="shape=partialRectangle;html=1;whiteSpace=wrap;connectable=0;overflow=hidden;fillColor=none;top=0;left=0;bottom=0;right=0;pointerEvents=1;sketch=1;hachureGap=4;jiggle=2;curveFitting=1;fontFamily=Architects Daughter;fontSource=https%3A%2F%2Ffonts.googleapis.com%2Fcss%3Ffamily%3DArchitects%2BDaughter;fontSize=20;" parent="88" vertex="1">
                    <mxGeometry x="180" width="60" height="60" as="geometry">
                        <mxRectangle width="60" height="60" as="alternateBounds"/>
                    </mxGeometry>
                </mxCell>
                <mxCell id="93" value="" style="shape=partialRectangle;html=1;whiteSpace=wrap;connectable=0;overflow=hidden;fillColor=none;top=0;left=0;bottom=0;right=0;pointerEvents=1;sketch=1;hachureGap=4;jiggle=2;curveFitting=1;fontFamily=Architects Daughter;fontSource=https%3A%2F%2Ffonts.googleapis.com%2Fcss%3Ffamily%3DArchitects%2BDaughter;fontSize=20;" parent="88" vertex="1">
                    <mxGeometry x="240" width="60" height="60" as="geometry">
                        <mxRectangle width="60" height="60" as="alternateBounds"/>
                    </mxGeometry>
                </mxCell>
                <mxCell id="94" value="" style="shape=partialRectangle;html=1;whiteSpace=wrap;connectable=0;overflow=hidden;fillColor=none;top=0;left=0;bottom=0;right=0;pointerEvents=1;sketch=1;hachureGap=4;jiggle=2;curveFitting=1;fontFamily=Architects Daughter;fontSource=https%3A%2F%2Ffonts.googleapis.com%2Fcss%3Ffamily%3DArchitects%2BDaughter;fontSize=20;" parent="88" vertex="1">
                    <mxGeometry x="300" width="60" height="60" as="geometry">
                        <mxRectangle width="60" height="60" as="alternateBounds"/>
                    </mxGeometry>
                </mxCell>
                <mxCell id="95" value="" style="shape=tableRow;horizontal=0;startSize=0;swimlaneHead=0;swimlaneBody=0;top=0;left=0;bottom=0;right=0;collapsible=0;dropTarget=0;fillColor=none;points=[[0,0.5],[1,0.5]];portConstraint=eastwest;sketch=1;hachureGap=4;jiggle=2;curveFitting=1;fontFamily=Architects Daughter;fontSource=https%3A%2F%2Ffonts.googleapis.com%2Fcss%3Ffamily%3DArchitects%2BDaughter;fontSize=20;" parent="87" vertex="1">
                    <mxGeometry y="60" width="360" height="60" as="geometry"/>
                </mxCell>
                <mxCell id="96" value="1" style="shape=partialRectangle;html=1;whiteSpace=wrap;connectable=0;overflow=hidden;fillColor=#60a917;top=0;left=0;bottom=0;right=0;pointerEvents=1;sketch=1;hachureGap=4;jiggle=2;curveFitting=1;fontFamily=Helvetica;fontSize=20;strokeColor=#2D7600;fontColor=#000000;" parent="95" vertex="1">
                    <mxGeometry width="60" height="60" as="geometry">
                        <mxRectangle width="60" height="60" as="alternateBounds"/>
                    </mxGeometry>
                </mxCell>
                <mxCell id="97" value="2" style="shape=partialRectangle;html=1;whiteSpace=wrap;connectable=0;overflow=hidden;fillColor=#60a917;top=0;left=0;bottom=0;right=0;pointerEvents=1;sketch=1;hachureGap=4;jiggle=2;curveFitting=1;fontFamily=Helvetica;fontSize=20;strokeColor=#2D7600;fontColor=#000000;" parent="95" vertex="1">
                    <mxGeometry x="60" width="60" height="60" as="geometry">
                        <mxRectangle width="60" height="60" as="alternateBounds"/>
                    </mxGeometry>
                </mxCell>
                <mxCell id="98" value="3" style="shape=partialRectangle;html=1;whiteSpace=wrap;connectable=0;overflow=hidden;fillColor=#60a917;top=0;left=0;bottom=0;right=0;pointerEvents=1;sketch=1;hachureGap=4;jiggle=2;curveFitting=1;fontFamily=Helvetica;fontSize=20;strokeColor=#2D7600;fontColor=#000000;" parent="95" vertex="1">
                    <mxGeometry x="120" width="60" height="60" as="geometry">
                        <mxRectangle width="60" height="60" as="alternateBounds"/>
                    </mxGeometry>
                </mxCell>
                <mxCell id="99" value="4" style="shape=partialRectangle;html=1;whiteSpace=wrap;connectable=0;overflow=hidden;fillColor=#60a917;top=0;left=0;bottom=0;right=0;pointerEvents=1;sketch=1;hachureGap=4;jiggle=2;curveFitting=1;fontFamily=Helvetica;fontSize=20;strokeColor=#2D7600;fontColor=#000000;" parent="95" vertex="1">
                    <mxGeometry x="180" width="60" height="60" as="geometry">
                        <mxRectangle width="60" height="60" as="alternateBounds"/>
                    </mxGeometry>
                </mxCell>
                <mxCell id="100" value="&lt;font face=&quot;Helvetica&quot;&gt;5&lt;/font&gt;" style="shape=partialRectangle;html=1;whiteSpace=wrap;connectable=0;overflow=hidden;fillColor=#60a917;top=0;left=0;bottom=0;right=0;pointerEvents=1;sketch=1;hachureGap=4;jiggle=2;curveFitting=1;fontFamily=Architects Daughter;fontSource=https%3A%2F%2Ffonts.googleapis.com%2Fcss%3Ffamily%3DArchitects%2BDaughter;fontSize=20;strokeColor=#2D7600;fontColor=#000000;" parent="95" vertex="1">
                    <mxGeometry x="240" width="60" height="60" as="geometry">
                        <mxRectangle width="60" height="60" as="alternateBounds"/>
                    </mxGeometry>
                </mxCell>
                <mxCell id="101" value="" style="shape=partialRectangle;html=1;whiteSpace=wrap;connectable=0;overflow=hidden;fillColor=none;top=0;left=0;bottom=0;right=0;pointerEvents=1;sketch=1;hachureGap=4;jiggle=2;curveFitting=1;fontFamily=Architects Daughter;fontSource=https%3A%2F%2Ffonts.googleapis.com%2Fcss%3Ffamily%3DArchitects%2BDaughter;fontSize=20;" parent="95" vertex="1">
                    <mxGeometry x="300" width="60" height="60" as="geometry">
                        <mxRectangle width="60" height="60" as="alternateBounds"/>
                    </mxGeometry>
                </mxCell>
                <mxCell id="102" value="" style="shape=tableRow;horizontal=0;startSize=0;swimlaneHead=0;swimlaneBody=0;top=0;left=0;bottom=0;right=0;collapsible=0;dropTarget=0;fillColor=none;points=[[0,0.5],[1,0.5]];portConstraint=eastwest;sketch=1;hachureGap=4;jiggle=2;curveFitting=1;fontFamily=Architects Daughter;fontSource=https%3A%2F%2Ffonts.googleapis.com%2Fcss%3Ffamily%3DArchitects%2BDaughter;fontSize=20;" parent="87" vertex="1">
                    <mxGeometry y="120" width="360" height="60" as="geometry"/>
                </mxCell>
                <mxCell id="103" value="" style="shape=partialRectangle;html=1;whiteSpace=wrap;connectable=0;overflow=hidden;fillColor=none;top=0;left=0;bottom=0;right=0;pointerEvents=1;sketch=1;hachureGap=4;jiggle=2;curveFitting=1;fontFamily=Architects Daughter;fontSource=https%3A%2F%2Ffonts.googleapis.com%2Fcss%3Ffamily%3DArchitects%2BDaughter;fontSize=20;" parent="102" vertex="1">
                    <mxGeometry width="60" height="60" as="geometry">
                        <mxRectangle width="60" height="60" as="alternateBounds"/>
                    </mxGeometry>
                </mxCell>
                <mxCell id="104" value="" style="shape=partialRectangle;html=1;whiteSpace=wrap;connectable=0;overflow=hidden;fillColor=none;top=0;left=0;bottom=0;right=0;pointerEvents=1;sketch=1;hachureGap=4;jiggle=2;curveFitting=1;fontFamily=Architects Daughter;fontSource=https%3A%2F%2Ffonts.googleapis.com%2Fcss%3Ffamily%3DArchitects%2BDaughter;fontSize=20;" parent="102" vertex="1">
                    <mxGeometry x="60" width="60" height="60" as="geometry">
                        <mxRectangle width="60" height="60" as="alternateBounds"/>
                    </mxGeometry>
                </mxCell>
                <mxCell id="105" value="" style="shape=partialRectangle;html=1;whiteSpace=wrap;connectable=0;overflow=hidden;fillColor=none;top=0;left=0;bottom=0;right=0;pointerEvents=1;sketch=1;hachureGap=4;jiggle=2;curveFitting=1;fontFamily=Architects Daughter;fontSource=https%3A%2F%2Ffonts.googleapis.com%2Fcss%3Ffamily%3DArchitects%2BDaughter;fontSize=20;" parent="102" vertex="1">
                    <mxGeometry x="120" width="60" height="60" as="geometry">
                        <mxRectangle width="60" height="60" as="alternateBounds"/>
                    </mxGeometry>
                </mxCell>
                <mxCell id="106" value="" style="shape=partialRectangle;html=1;whiteSpace=wrap;connectable=0;overflow=hidden;fillColor=none;top=0;left=0;bottom=0;right=0;pointerEvents=1;sketch=1;hachureGap=4;jiggle=2;curveFitting=1;fontFamily=Architects Daughter;fontSource=https%3A%2F%2Ffonts.googleapis.com%2Fcss%3Ffamily%3DArchitects%2BDaughter;fontSize=20;" parent="102" vertex="1">
                    <mxGeometry x="180" width="60" height="60" as="geometry">
                        <mxRectangle width="60" height="60" as="alternateBounds"/>
                    </mxGeometry>
                </mxCell>
                <mxCell id="107" value="" style="shape=partialRectangle;html=1;whiteSpace=wrap;connectable=0;overflow=hidden;fillColor=none;top=0;left=0;bottom=0;right=0;pointerEvents=1;sketch=1;hachureGap=4;jiggle=2;curveFitting=1;fontFamily=Architects Daughter;fontSource=https%3A%2F%2Ffonts.googleapis.com%2Fcss%3Ffamily%3DArchitects%2BDaughter;fontSize=20;" parent="102" vertex="1">
                    <mxGeometry x="240" width="60" height="60" as="geometry">
                        <mxRectangle width="60" height="60" as="alternateBounds"/>
                    </mxGeometry>
                </mxCell>
                <mxCell id="108" value="" style="shape=partialRectangle;html=1;whiteSpace=wrap;connectable=0;overflow=hidden;fillColor=none;top=0;left=0;bottom=0;right=0;pointerEvents=1;sketch=1;hachureGap=4;jiggle=2;curveFitting=1;fontFamily=Architects Daughter;fontSource=https%3A%2F%2Ffonts.googleapis.com%2Fcss%3Ffamily%3DArchitects%2BDaughter;fontSize=20;" parent="102" vertex="1">
                    <mxGeometry x="300" width="60" height="60" as="geometry">
                        <mxRectangle width="60" height="60" as="alternateBounds"/>
                    </mxGeometry>
                </mxCell>
                <mxCell id="109" value="" style="shape=tableRow;horizontal=0;startSize=0;swimlaneHead=0;swimlaneBody=0;top=0;left=0;bottom=0;right=0;collapsible=0;dropTarget=0;fillColor=none;points=[[0,0.5],[1,0.5]];portConstraint=eastwest;sketch=1;hachureGap=4;jiggle=2;curveFitting=1;fontFamily=Architects Daughter;fontSource=https%3A%2F%2Ffonts.googleapis.com%2Fcss%3Ffamily%3DArchitects%2BDaughter;fontSize=20;" parent="87" vertex="1">
                    <mxGeometry y="180" width="360" height="60" as="geometry"/>
                </mxCell>
                <mxCell id="110" value="" style="shape=partialRectangle;html=1;whiteSpace=wrap;connectable=0;overflow=hidden;fillColor=none;top=0;left=0;bottom=0;right=0;pointerEvents=1;sketch=1;hachureGap=4;jiggle=2;curveFitting=1;fontFamily=Architects Daughter;fontSource=https%3A%2F%2Ffonts.googleapis.com%2Fcss%3Ffamily%3DArchitects%2BDaughter;fontSize=20;" parent="109" vertex="1">
                    <mxGeometry width="60" height="60" as="geometry">
                        <mxRectangle width="60" height="60" as="alternateBounds"/>
                    </mxGeometry>
                </mxCell>
                <mxCell id="111" value="" style="shape=partialRectangle;html=1;whiteSpace=wrap;connectable=0;overflow=hidden;fillColor=none;top=0;left=0;bottom=0;right=0;pointerEvents=1;sketch=1;hachureGap=4;jiggle=2;curveFitting=1;fontFamily=Architects Daughter;fontSource=https%3A%2F%2Ffonts.googleapis.com%2Fcss%3Ffamily%3DArchitects%2BDaughter;fontSize=20;" parent="109" vertex="1">
                    <mxGeometry x="60" width="60" height="60" as="geometry">
                        <mxRectangle width="60" height="60" as="alternateBounds"/>
                    </mxGeometry>
                </mxCell>
                <mxCell id="112" value="" style="shape=partialRectangle;html=1;whiteSpace=wrap;connectable=0;overflow=hidden;fillColor=none;top=0;left=0;bottom=0;right=0;pointerEvents=1;sketch=1;hachureGap=4;jiggle=2;curveFitting=1;fontFamily=Architects Daughter;fontSource=https%3A%2F%2Ffonts.googleapis.com%2Fcss%3Ffamily%3DArchitects%2BDaughter;fontSize=20;" parent="109" vertex="1">
                    <mxGeometry x="120" width="60" height="60" as="geometry">
                        <mxRectangle width="60" height="60" as="alternateBounds"/>
                    </mxGeometry>
                </mxCell>
                <mxCell id="113" value="" style="shape=partialRectangle;html=1;whiteSpace=wrap;connectable=0;overflow=hidden;fillColor=none;top=0;left=0;bottom=0;right=0;pointerEvents=1;sketch=1;hachureGap=4;jiggle=2;curveFitting=1;fontFamily=Architects Daughter;fontSource=https%3A%2F%2Ffonts.googleapis.com%2Fcss%3Ffamily%3DArchitects%2BDaughter;fontSize=20;" parent="109" vertex="1">
                    <mxGeometry x="180" width="60" height="60" as="geometry">
                        <mxRectangle width="60" height="60" as="alternateBounds"/>
                    </mxGeometry>
                </mxCell>
                <mxCell id="114" value="" style="shape=partialRectangle;html=1;whiteSpace=wrap;connectable=0;overflow=hidden;fillColor=none;top=0;left=0;bottom=0;right=0;pointerEvents=1;sketch=1;hachureGap=4;jiggle=2;curveFitting=1;fontFamily=Architects Daughter;fontSource=https%3A%2F%2Ffonts.googleapis.com%2Fcss%3Ffamily%3DArchitects%2BDaughter;fontSize=20;" parent="109" vertex="1">
                    <mxGeometry x="240" width="60" height="60" as="geometry">
                        <mxRectangle width="60" height="60" as="alternateBounds"/>
                    </mxGeometry>
                </mxCell>
                <mxCell id="115" value="" style="shape=partialRectangle;html=1;whiteSpace=wrap;connectable=0;overflow=hidden;fillColor=none;top=0;left=0;bottom=0;right=0;pointerEvents=1;sketch=1;hachureGap=4;jiggle=2;curveFitting=1;fontFamily=Architects Daughter;fontSource=https%3A%2F%2Ffonts.googleapis.com%2Fcss%3Ffamily%3DArchitects%2BDaughter;fontSize=20;" parent="109" vertex="1">
                    <mxGeometry x="300" width="60" height="60" as="geometry">
                        <mxRectangle width="60" height="60" as="alternateBounds"/>
                    </mxGeometry>
                </mxCell>
                <mxCell id="116" value="" style="shape=tableRow;horizontal=0;startSize=0;swimlaneHead=0;swimlaneBody=0;top=0;left=0;bottom=0;right=0;collapsible=0;dropTarget=0;fillColor=none;points=[[0,0.5],[1,0.5]];portConstraint=eastwest;sketch=1;hachureGap=4;jiggle=2;curveFitting=1;fontFamily=Architects Daughter;fontSource=https%3A%2F%2Ffonts.googleapis.com%2Fcss%3Ffamily%3DArchitects%2BDaughter;fontSize=20;" parent="87" vertex="1">
                    <mxGeometry y="240" width="360" height="60" as="geometry"/>
                </mxCell>
                <mxCell id="117" value="" style="shape=partialRectangle;html=1;whiteSpace=wrap;connectable=0;overflow=hidden;fillColor=none;top=0;left=0;bottom=0;right=0;pointerEvents=1;sketch=1;hachureGap=4;jiggle=2;curveFitting=1;fontFamily=Architects Daughter;fontSource=https%3A%2F%2Ffonts.googleapis.com%2Fcss%3Ffamily%3DArchitects%2BDaughter;fontSize=20;" parent="116" vertex="1">
                    <mxGeometry width="60" height="60" as="geometry">
                        <mxRectangle width="60" height="60" as="alternateBounds"/>
                    </mxGeometry>
                </mxCell>
                <mxCell id="118" value="" style="shape=partialRectangle;html=1;whiteSpace=wrap;connectable=0;overflow=hidden;fillColor=none;top=0;left=0;bottom=0;right=0;pointerEvents=1;sketch=1;hachureGap=4;jiggle=2;curveFitting=1;fontFamily=Architects Daughter;fontSource=https%3A%2F%2Ffonts.googleapis.com%2Fcss%3Ffamily%3DArchitects%2BDaughter;fontSize=20;" parent="116" vertex="1">
                    <mxGeometry x="60" width="60" height="60" as="geometry">
                        <mxRectangle width="60" height="60" as="alternateBounds"/>
                    </mxGeometry>
                </mxCell>
                <mxCell id="119" value="" style="shape=partialRectangle;html=1;whiteSpace=wrap;connectable=0;overflow=hidden;fillColor=none;top=0;left=0;bottom=0;right=0;pointerEvents=1;sketch=1;hachureGap=4;jiggle=2;curveFitting=1;fontFamily=Architects Daughter;fontSource=https%3A%2F%2Ffonts.googleapis.com%2Fcss%3Ffamily%3DArchitects%2BDaughter;fontSize=20;" parent="116" vertex="1">
                    <mxGeometry x="120" width="60" height="60" as="geometry">
                        <mxRectangle width="60" height="60" as="alternateBounds"/>
                    </mxGeometry>
                </mxCell>
                <mxCell id="120" value="" style="shape=partialRectangle;html=1;whiteSpace=wrap;connectable=0;overflow=hidden;fillColor=none;top=0;left=0;bottom=0;right=0;pointerEvents=1;sketch=1;hachureGap=4;jiggle=2;curveFitting=1;fontFamily=Architects Daughter;fontSource=https%3A%2F%2Ffonts.googleapis.com%2Fcss%3Ffamily%3DArchitects%2BDaughter;fontSize=20;" parent="116" vertex="1">
                    <mxGeometry x="180" width="60" height="60" as="geometry">
                        <mxRectangle width="60" height="60" as="alternateBounds"/>
                    </mxGeometry>
                </mxCell>
                <mxCell id="121" value="" style="shape=partialRectangle;html=1;whiteSpace=wrap;connectable=0;overflow=hidden;fillColor=none;top=0;left=0;bottom=0;right=0;pointerEvents=1;sketch=1;hachureGap=4;jiggle=2;curveFitting=1;fontFamily=Architects Daughter;fontSource=https%3A%2F%2Ffonts.googleapis.com%2Fcss%3Ffamily%3DArchitects%2BDaughter;fontSize=20;" parent="116" vertex="1">
                    <mxGeometry x="240" width="60" height="60" as="geometry">
                        <mxRectangle width="60" height="60" as="alternateBounds"/>
                    </mxGeometry>
                </mxCell>
                <mxCell id="122" value="" style="shape=partialRectangle;html=1;whiteSpace=wrap;connectable=0;overflow=hidden;fillColor=none;top=0;left=0;bottom=0;right=0;pointerEvents=1;sketch=1;hachureGap=4;jiggle=2;curveFitting=1;fontFamily=Architects Daughter;fontSource=https%3A%2F%2Ffonts.googleapis.com%2Fcss%3Ffamily%3DArchitects%2BDaughter;fontSize=20;" parent="116" vertex="1">
                    <mxGeometry x="300" width="60" height="60" as="geometry">
                        <mxRectangle width="60" height="60" as="alternateBounds"/>
                    </mxGeometry>
                </mxCell>
                <mxCell id="123" value="" style="shape=tableRow;horizontal=0;startSize=0;swimlaneHead=0;swimlaneBody=0;top=0;left=0;bottom=0;right=0;collapsible=0;dropTarget=0;fillColor=none;points=[[0,0.5],[1,0.5]];portConstraint=eastwest;sketch=1;hachureGap=4;jiggle=2;curveFitting=1;fontFamily=Architects Daughter;fontSource=https%3A%2F%2Ffonts.googleapis.com%2Fcss%3Ffamily%3DArchitects%2BDaughter;fontSize=20;" parent="87" vertex="1">
                    <mxGeometry y="300" width="360" height="60" as="geometry"/>
                </mxCell>
                <mxCell id="124" value="" style="shape=partialRectangle;html=1;whiteSpace=wrap;connectable=0;overflow=hidden;fillColor=none;top=0;left=0;bottom=0;right=0;pointerEvents=1;sketch=1;hachureGap=4;jiggle=2;curveFitting=1;fontFamily=Architects Daughter;fontSource=https%3A%2F%2Ffonts.googleapis.com%2Fcss%3Ffamily%3DArchitects%2BDaughter;fontSize=20;" parent="123" vertex="1">
                    <mxGeometry width="60" height="60" as="geometry">
                        <mxRectangle width="60" height="60" as="alternateBounds"/>
                    </mxGeometry>
                </mxCell>
                <mxCell id="125" value="" style="shape=partialRectangle;html=1;whiteSpace=wrap;connectable=0;overflow=hidden;fillColor=none;top=0;left=0;bottom=0;right=0;pointerEvents=1;sketch=1;hachureGap=4;jiggle=2;curveFitting=1;fontFamily=Architects Daughter;fontSource=https%3A%2F%2Ffonts.googleapis.com%2Fcss%3Ffamily%3DArchitects%2BDaughter;fontSize=20;" parent="123" vertex="1">
                    <mxGeometry x="60" width="60" height="60" as="geometry">
                        <mxRectangle width="60" height="60" as="alternateBounds"/>
                    </mxGeometry>
                </mxCell>
                <mxCell id="126" value="" style="shape=partialRectangle;html=1;whiteSpace=wrap;connectable=0;overflow=hidden;fillColor=none;top=0;left=0;bottom=0;right=0;pointerEvents=1;sketch=1;hachureGap=4;jiggle=2;curveFitting=1;fontFamily=Architects Daughter;fontSource=https%3A%2F%2Ffonts.googleapis.com%2Fcss%3Ffamily%3DArchitects%2BDaughter;fontSize=20;" parent="123" vertex="1">
                    <mxGeometry x="120" width="60" height="60" as="geometry">
                        <mxRectangle width="60" height="60" as="alternateBounds"/>
                    </mxGeometry>
                </mxCell>
                <mxCell id="127" value="" style="shape=partialRectangle;html=1;whiteSpace=wrap;connectable=0;overflow=hidden;fillColor=none;top=0;left=0;bottom=0;right=0;pointerEvents=1;sketch=1;hachureGap=4;jiggle=2;curveFitting=1;fontFamily=Architects Daughter;fontSource=https%3A%2F%2Ffonts.googleapis.com%2Fcss%3Ffamily%3DArchitects%2BDaughter;fontSize=20;" parent="123" vertex="1">
                    <mxGeometry x="180" width="60" height="60" as="geometry">
                        <mxRectangle width="60" height="60" as="alternateBounds"/>
                    </mxGeometry>
                </mxCell>
                <mxCell id="128" value="" style="shape=partialRectangle;html=1;whiteSpace=wrap;connectable=0;overflow=hidden;fillColor=none;top=0;left=0;bottom=0;right=0;pointerEvents=1;sketch=1;hachureGap=4;jiggle=2;curveFitting=1;fontFamily=Architects Daughter;fontSource=https%3A%2F%2Ffonts.googleapis.com%2Fcss%3Ffamily%3DArchitects%2BDaughter;fontSize=20;" parent="123" vertex="1">
                    <mxGeometry x="240" width="60" height="60" as="geometry">
                        <mxRectangle width="60" height="60" as="alternateBounds"/>
                    </mxGeometry>
                </mxCell>
                <mxCell id="129" value="" style="shape=partialRectangle;html=1;whiteSpace=wrap;connectable=0;overflow=hidden;fillColor=none;top=0;left=0;bottom=0;right=0;pointerEvents=1;sketch=1;hachureGap=4;jiggle=2;curveFitting=1;fontFamily=Architects Daughter;fontSource=https%3A%2F%2Ffonts.googleapis.com%2Fcss%3Ffamily%3DArchitects%2BDaughter;fontSize=20;" parent="123" vertex="1">
                    <mxGeometry x="300" width="60" height="60" as="geometry">
                        <mxRectangle width="60" height="60" as="alternateBounds"/>
                    </mxGeometry>
                </mxCell>
                <mxCell id="137" value="连续存储" style="text;html=1;align=center;verticalAlign=middle;resizable=0;points=[];autosize=1;strokeColor=none;fillColor=none;fontSize=20;fontFamily=Helvetica;fontColor=#000000;sketch=1;hachureGap=4;jiggle=2;curveFitting=1;fontSource=https%3A%2F%2Ffonts.googleapis.com%2Fcss%3Ffamily%3DArchitects%2BDaughter;" parent="1" vertex="1">
                    <mxGeometry x="287" y="589" width="98" height="36" as="geometry"/>
                </mxCell>
                <mxCell id="138" value="" style="shape=table;startSize=0;container=1;collapsible=0;childLayout=tableLayout;sketch=1;hachureGap=4;jiggle=2;curveFitting=1;fontFamily=Helvetica;fontSize=20;fillColor=none;" parent="1" vertex="1">
                    <mxGeometry x="649" y="644" width="360" height="360" as="geometry"/>
                </mxCell>
                <mxCell id="139" value="" style="shape=tableRow;horizontal=0;startSize=0;swimlaneHead=0;swimlaneBody=0;top=0;left=0;bottom=0;right=0;collapsible=0;dropTarget=0;fillColor=none;points=[[0,0.5],[1,0.5]];portConstraint=eastwest;sketch=1;hachureGap=4;jiggle=2;curveFitting=1;fontFamily=Architects Daughter;fontSource=https%3A%2F%2Ffonts.googleapis.com%2Fcss%3Ffamily%3DArchitects%2BDaughter;fontSize=20;" parent="138" vertex="1">
                    <mxGeometry width="360" height="60" as="geometry"/>
                </mxCell>
                <mxCell id="140" value="1" style="shape=partialRectangle;html=1;whiteSpace=wrap;connectable=0;overflow=hidden;fillColor=#60a917;top=0;left=0;bottom=0;right=0;pointerEvents=1;sketch=1;hachureGap=4;jiggle=2;curveFitting=1;fontFamily=Helvetica;fontSize=20;fontColor=#000000;strokeColor=#2D7600;" parent="139" vertex="1">
                    <mxGeometry width="60" height="60" as="geometry">
                        <mxRectangle width="60" height="60" as="alternateBounds"/>
                    </mxGeometry>
                </mxCell>
                <mxCell id="141" value="" style="shape=partialRectangle;html=1;whiteSpace=wrap;connectable=0;overflow=hidden;fillColor=#1ba1e2;top=0;left=0;bottom=0;right=0;pointerEvents=1;sketch=1;hachureGap=4;jiggle=2;curveFitting=1;fontFamily=Helvetica;fontSize=20;fontColor=#ffffff;strokeColor=#006EAF;" parent="139" vertex="1">
                    <mxGeometry x="60" width="60" height="60" as="geometry">
                        <mxRectangle width="60" height="60" as="alternateBounds"/>
                    </mxGeometry>
                </mxCell>
                <mxCell id="142" value="" style="shape=partialRectangle;html=1;whiteSpace=wrap;connectable=0;overflow=hidden;fillColor=none;top=0;left=0;bottom=0;right=0;pointerEvents=1;sketch=1;hachureGap=4;jiggle=2;curveFitting=1;fontFamily=Helvetica;fontSize=20;" parent="139" vertex="1">
                    <mxGeometry x="120" width="60" height="60" as="geometry">
                        <mxRectangle width="60" height="60" as="alternateBounds"/>
                    </mxGeometry>
                </mxCell>
                <mxCell id="143" value="" style="shape=partialRectangle;html=1;whiteSpace=wrap;connectable=0;overflow=hidden;fillColor=none;top=0;left=0;bottom=0;right=0;pointerEvents=1;sketch=1;hachureGap=4;jiggle=2;curveFitting=1;fontFamily=Helvetica;fontSize=20;" parent="139" vertex="1">
                    <mxGeometry x="180" width="60" height="60" as="geometry">
                        <mxRectangle width="60" height="60" as="alternateBounds"/>
                    </mxGeometry>
                </mxCell>
                <mxCell id="144" value="" style="shape=partialRectangle;html=1;whiteSpace=wrap;connectable=0;overflow=hidden;fillColor=none;top=0;left=0;bottom=0;right=0;pointerEvents=1;sketch=1;hachureGap=4;jiggle=2;curveFitting=1;fontFamily=Helvetica;fontSize=20;" parent="139" vertex="1">
                    <mxGeometry x="240" width="60" height="60" as="geometry">
                        <mxRectangle width="60" height="60" as="alternateBounds"/>
                    </mxGeometry>
                </mxCell>
                <mxCell id="145" value="" style="shape=partialRectangle;html=1;whiteSpace=wrap;connectable=0;overflow=hidden;fillColor=none;top=0;left=0;bottom=0;right=0;pointerEvents=1;sketch=1;hachureGap=4;jiggle=2;curveFitting=1;fontFamily=Helvetica;fontSize=20;" parent="139" vertex="1">
                    <mxGeometry x="300" width="60" height="60" as="geometry">
                        <mxRectangle width="60" height="60" as="alternateBounds"/>
                    </mxGeometry>
                </mxCell>
                <mxCell id="146" value="" style="shape=tableRow;horizontal=0;startSize=0;swimlaneHead=0;swimlaneBody=0;top=0;left=0;bottom=0;right=0;collapsible=0;dropTarget=0;fillColor=none;points=[[0,0.5],[1,0.5]];portConstraint=eastwest;sketch=1;hachureGap=4;jiggle=2;curveFitting=1;fontFamily=Architects Daughter;fontSource=https%3A%2F%2Ffonts.googleapis.com%2Fcss%3Ffamily%3DArchitects%2BDaughter;fontSize=20;" parent="138" vertex="1">
                    <mxGeometry y="60" width="360" height="60" as="geometry"/>
                </mxCell>
                <mxCell id="147" value="" style="shape=partialRectangle;html=1;whiteSpace=wrap;connectable=0;overflow=hidden;fillColor=none;top=0;left=0;bottom=0;right=0;pointerEvents=1;sketch=1;hachureGap=4;jiggle=2;curveFitting=1;fontFamily=Helvetica;fontSize=20;strokeColor=#2D7600;fontColor=#000000;" parent="146" vertex="1">
                    <mxGeometry width="60" height="60" as="geometry">
                        <mxRectangle width="60" height="60" as="alternateBounds"/>
                    </mxGeometry>
                </mxCell>
                <mxCell id="148" value="" style="shape=partialRectangle;html=1;whiteSpace=wrap;connectable=0;overflow=hidden;fillColor=none;top=0;left=0;bottom=0;right=0;pointerEvents=1;sketch=1;hachureGap=4;jiggle=2;curveFitting=1;fontFamily=Helvetica;fontSize=20;strokeColor=#2D7600;fontColor=#000000;" parent="146" vertex="1">
                    <mxGeometry x="60" width="60" height="60" as="geometry">
                        <mxRectangle width="60" height="60" as="alternateBounds"/>
                    </mxGeometry>
                </mxCell>
                <mxCell id="149" value="" style="shape=partialRectangle;html=1;whiteSpace=wrap;connectable=0;overflow=hidden;fillColor=none;top=0;left=0;bottom=0;right=0;pointerEvents=1;sketch=1;hachureGap=4;jiggle=2;curveFitting=1;fontFamily=Helvetica;fontSize=20;strokeColor=#2D7600;fontColor=#000000;" parent="146" vertex="1">
                    <mxGeometry x="120" width="60" height="60" as="geometry">
                        <mxRectangle width="60" height="60" as="alternateBounds"/>
                    </mxGeometry>
                </mxCell>
                <mxCell id="150" value="" style="shape=partialRectangle;html=1;whiteSpace=wrap;connectable=0;overflow=hidden;fillColor=none;top=0;left=0;bottom=0;right=0;pointerEvents=1;sketch=1;hachureGap=4;jiggle=2;curveFitting=1;fontFamily=Helvetica;fontSize=20;strokeColor=#2D7600;fontColor=#000000;" parent="146" vertex="1">
                    <mxGeometry x="180" width="60" height="60" as="geometry">
                        <mxRectangle width="60" height="60" as="alternateBounds"/>
                    </mxGeometry>
                </mxCell>
                <mxCell id="151" value="" style="shape=partialRectangle;html=1;whiteSpace=wrap;connectable=0;overflow=hidden;fillColor=none;top=0;left=0;bottom=0;right=0;pointerEvents=1;sketch=1;hachureGap=4;jiggle=2;curveFitting=1;fontFamily=Helvetica;fontSize=20;strokeColor=#2D7600;fontColor=#000000;" parent="146" vertex="1">
                    <mxGeometry x="240" width="60" height="60" as="geometry">
                        <mxRectangle width="60" height="60" as="alternateBounds"/>
                    </mxGeometry>
                </mxCell>
                <mxCell id="152" value="" style="shape=partialRectangle;html=1;whiteSpace=wrap;connectable=0;overflow=hidden;fillColor=none;top=0;left=0;bottom=0;right=0;pointerEvents=1;sketch=1;hachureGap=4;jiggle=2;curveFitting=1;fontFamily=Helvetica;fontSize=20;" parent="146" vertex="1">
                    <mxGeometry x="300" width="60" height="60" as="geometry">
                        <mxRectangle width="60" height="60" as="alternateBounds"/>
                    </mxGeometry>
                </mxCell>
                <mxCell id="153" value="" style="shape=tableRow;horizontal=0;startSize=0;swimlaneHead=0;swimlaneBody=0;top=0;left=0;bottom=0;right=0;collapsible=0;dropTarget=0;fillColor=none;points=[[0,0.5],[1,0.5]];portConstraint=eastwest;sketch=1;hachureGap=4;jiggle=2;curveFitting=1;fontFamily=Architects Daughter;fontSource=https%3A%2F%2Ffonts.googleapis.com%2Fcss%3Ffamily%3DArchitects%2BDaughter;fontSize=20;" parent="138" vertex="1">
                    <mxGeometry y="120" width="360" height="60" as="geometry"/>
                </mxCell>
                <mxCell id="154" value="" style="shape=partialRectangle;html=1;whiteSpace=wrap;connectable=0;overflow=hidden;fillColor=none;top=0;left=0;bottom=0;right=0;pointerEvents=1;sketch=1;hachureGap=4;jiggle=2;curveFitting=1;fontFamily=Helvetica;fontSize=20;" parent="153" vertex="1">
                    <mxGeometry width="60" height="60" as="geometry">
                        <mxRectangle width="60" height="60" as="alternateBounds"/>
                    </mxGeometry>
                </mxCell>
                <mxCell id="155" value="" style="shape=partialRectangle;html=1;whiteSpace=wrap;connectable=0;overflow=hidden;fillColor=none;top=0;left=0;bottom=0;right=0;pointerEvents=1;sketch=1;hachureGap=4;jiggle=2;curveFitting=1;fontFamily=Helvetica;fontSize=20;" parent="153" vertex="1">
                    <mxGeometry x="60" width="60" height="60" as="geometry">
                        <mxRectangle width="60" height="60" as="alternateBounds"/>
                    </mxGeometry>
                </mxCell>
                <mxCell id="156" value="" style="shape=partialRectangle;html=1;whiteSpace=wrap;connectable=0;overflow=hidden;fillColor=none;top=0;left=0;bottom=0;right=0;pointerEvents=1;sketch=1;hachureGap=4;jiggle=2;curveFitting=1;fontFamily=Helvetica;fontSize=20;" parent="153" vertex="1">
                    <mxGeometry x="120" width="60" height="60" as="geometry">
                        <mxRectangle width="60" height="60" as="alternateBounds"/>
                    </mxGeometry>
                </mxCell>
                <mxCell id="157" value="2" style="shape=partialRectangle;html=1;whiteSpace=wrap;connectable=0;overflow=hidden;fillColor=#60a917;top=0;left=0;bottom=0;right=0;pointerEvents=1;sketch=1;hachureGap=4;jiggle=2;curveFitting=1;fontFamily=Helvetica;fontSize=20;fontColor=#000000;strokeColor=#2D7600;" parent="153" vertex="1">
                    <mxGeometry x="180" width="60" height="60" as="geometry">
                        <mxRectangle width="60" height="60" as="alternateBounds"/>
                    </mxGeometry>
                </mxCell>
                <mxCell id="158" value="" style="shape=partialRectangle;html=1;whiteSpace=wrap;connectable=0;overflow=hidden;fillColor=#1ba1e2;top=0;left=0;bottom=0;right=0;pointerEvents=1;sketch=1;hachureGap=4;jiggle=2;curveFitting=1;fontFamily=Helvetica;fontSize=20;fontColor=#ffffff;strokeColor=#006EAF;" parent="153" vertex="1">
                    <mxGeometry x="240" width="60" height="60" as="geometry">
                        <mxRectangle width="60" height="60" as="alternateBounds"/>
                    </mxGeometry>
                </mxCell>
                <mxCell id="159" value="" style="shape=partialRectangle;html=1;whiteSpace=wrap;connectable=0;overflow=hidden;fillColor=none;top=0;left=0;bottom=0;right=0;pointerEvents=1;sketch=1;hachureGap=4;jiggle=2;curveFitting=1;fontFamily=Helvetica;fontSize=20;" parent="153" vertex="1">
                    <mxGeometry x="300" width="60" height="60" as="geometry">
                        <mxRectangle width="60" height="60" as="alternateBounds"/>
                    </mxGeometry>
                </mxCell>
                <mxCell id="160" value="" style="shape=tableRow;horizontal=0;startSize=0;swimlaneHead=0;swimlaneBody=0;top=0;left=0;bottom=0;right=0;collapsible=0;dropTarget=0;fillColor=none;points=[[0,0.5],[1,0.5]];portConstraint=eastwest;sketch=1;hachureGap=4;jiggle=2;curveFitting=1;fontFamily=Architects Daughter;fontSource=https%3A%2F%2Ffonts.googleapis.com%2Fcss%3Ffamily%3DArchitects%2BDaughter;fontSize=20;" parent="138" vertex="1">
                    <mxGeometry y="180" width="360" height="60" as="geometry"/>
                </mxCell>
                <mxCell id="161" value="" style="shape=partialRectangle;html=1;whiteSpace=wrap;connectable=0;overflow=hidden;fillColor=none;top=0;left=0;bottom=0;right=0;pointerEvents=1;sketch=1;hachureGap=4;jiggle=2;curveFitting=1;fontFamily=Helvetica;fontSize=20;" parent="160" vertex="1">
                    <mxGeometry width="60" height="60" as="geometry">
                        <mxRectangle width="60" height="60" as="alternateBounds"/>
                    </mxGeometry>
                </mxCell>
                <mxCell id="162" value="" style="shape=partialRectangle;html=1;whiteSpace=wrap;connectable=0;overflow=hidden;fillColor=none;top=0;left=0;bottom=0;right=0;pointerEvents=1;sketch=1;hachureGap=4;jiggle=2;curveFitting=1;fontFamily=Helvetica;fontSize=20;" parent="160" vertex="1">
                    <mxGeometry x="60" width="60" height="60" as="geometry">
                        <mxRectangle width="60" height="60" as="alternateBounds"/>
                    </mxGeometry>
                </mxCell>
                <mxCell id="163" value="" style="shape=partialRectangle;html=1;whiteSpace=wrap;connectable=0;overflow=hidden;fillColor=none;top=0;left=0;bottom=0;right=0;pointerEvents=1;sketch=1;hachureGap=4;jiggle=2;curveFitting=1;fontFamily=Helvetica;fontSize=20;" parent="160" vertex="1">
                    <mxGeometry x="120" width="60" height="60" as="geometry">
                        <mxRectangle width="60" height="60" as="alternateBounds"/>
                    </mxGeometry>
                </mxCell>
                <mxCell id="164" value="" style="shape=partialRectangle;html=1;whiteSpace=wrap;connectable=0;overflow=hidden;fillColor=none;top=0;left=0;bottom=0;right=0;pointerEvents=1;sketch=1;hachureGap=4;jiggle=2;curveFitting=1;fontFamily=Helvetica;fontSize=20;" parent="160" vertex="1">
                    <mxGeometry x="180" width="60" height="60" as="geometry">
                        <mxRectangle width="60" height="60" as="alternateBounds"/>
                    </mxGeometry>
                </mxCell>
                <mxCell id="165" value="" style="shape=partialRectangle;html=1;whiteSpace=wrap;connectable=0;overflow=hidden;fillColor=none;top=0;left=0;bottom=0;right=0;pointerEvents=1;sketch=1;hachureGap=4;jiggle=2;curveFitting=1;fontFamily=Helvetica;fontSize=20;" parent="160" vertex="1">
                    <mxGeometry x="240" width="60" height="60" as="geometry">
                        <mxRectangle width="60" height="60" as="alternateBounds"/>
                    </mxGeometry>
                </mxCell>
                <mxCell id="166" value="" style="shape=partialRectangle;html=1;whiteSpace=wrap;connectable=0;overflow=hidden;fillColor=none;top=0;left=0;bottom=0;right=0;pointerEvents=1;sketch=1;hachureGap=4;jiggle=2;curveFitting=1;fontFamily=Helvetica;fontSize=20;" parent="160" vertex="1">
                    <mxGeometry x="300" width="60" height="60" as="geometry">
                        <mxRectangle width="60" height="60" as="alternateBounds"/>
                    </mxGeometry>
                </mxCell>
                <mxCell id="167" value="" style="shape=tableRow;horizontal=0;startSize=0;swimlaneHead=0;swimlaneBody=0;top=0;left=0;bottom=0;right=0;collapsible=0;dropTarget=0;fillColor=none;points=[[0,0.5],[1,0.5]];portConstraint=eastwest;sketch=1;hachureGap=4;jiggle=2;curveFitting=1;fontFamily=Architects Daughter;fontSource=https%3A%2F%2Ffonts.googleapis.com%2Fcss%3Ffamily%3DArchitects%2BDaughter;fontSize=20;" parent="138" vertex="1">
                    <mxGeometry y="240" width="360" height="60" as="geometry"/>
                </mxCell>
                <mxCell id="168" value="" style="shape=partialRectangle;html=1;whiteSpace=wrap;connectable=0;overflow=hidden;fillColor=none;top=0;left=0;bottom=0;right=0;pointerEvents=1;sketch=1;hachureGap=4;jiggle=2;curveFitting=1;fontFamily=Helvetica;fontSize=20;" parent="167" vertex="1">
                    <mxGeometry width="60" height="60" as="geometry">
                        <mxRectangle width="60" height="60" as="alternateBounds"/>
                    </mxGeometry>
                </mxCell>
                <mxCell id="169" value="" style="shape=partialRectangle;html=1;whiteSpace=wrap;connectable=0;overflow=hidden;fillColor=none;top=0;left=0;bottom=0;right=0;pointerEvents=1;sketch=1;hachureGap=4;jiggle=2;curveFitting=1;fontFamily=Helvetica;fontSize=20;" parent="167" vertex="1">
                    <mxGeometry x="60" width="60" height="60" as="geometry">
                        <mxRectangle width="60" height="60" as="alternateBounds"/>
                    </mxGeometry>
                </mxCell>
                <mxCell id="170" value="" style="shape=partialRectangle;html=1;whiteSpace=wrap;connectable=0;overflow=hidden;fillColor=none;top=0;left=0;bottom=0;right=0;pointerEvents=1;sketch=1;hachureGap=4;jiggle=2;curveFitting=1;fontFamily=Helvetica;fontSize=20;" parent="167" vertex="1">
                    <mxGeometry x="120" width="60" height="60" as="geometry">
                        <mxRectangle width="60" height="60" as="alternateBounds"/>
                    </mxGeometry>
                </mxCell>
                <mxCell id="171" value="" style="shape=partialRectangle;html=1;whiteSpace=wrap;connectable=0;overflow=hidden;fillColor=none;top=0;left=0;bottom=0;right=0;pointerEvents=1;sketch=1;hachureGap=4;jiggle=2;curveFitting=1;fontFamily=Helvetica;fontSize=20;" parent="167" vertex="1">
                    <mxGeometry x="180" width="60" height="60" as="geometry">
                        <mxRectangle width="60" height="60" as="alternateBounds"/>
                    </mxGeometry>
                </mxCell>
                <mxCell id="172" value="" style="shape=partialRectangle;html=1;whiteSpace=wrap;connectable=0;overflow=hidden;fillColor=none;top=0;left=0;bottom=0;right=0;pointerEvents=1;sketch=1;hachureGap=4;jiggle=2;curveFitting=1;fontFamily=Helvetica;fontSize=20;" parent="167" vertex="1">
                    <mxGeometry x="240" width="60" height="60" as="geometry">
                        <mxRectangle width="60" height="60" as="alternateBounds"/>
                    </mxGeometry>
                </mxCell>
                <mxCell id="173" value="" style="shape=partialRectangle;html=1;whiteSpace=wrap;connectable=0;overflow=hidden;fillColor=none;top=0;left=0;bottom=0;right=0;pointerEvents=1;sketch=1;hachureGap=4;jiggle=2;curveFitting=1;fontFamily=Helvetica;fontSize=20;" parent="167" vertex="1">
                    <mxGeometry x="300" width="60" height="60" as="geometry">
                        <mxRectangle width="60" height="60" as="alternateBounds"/>
                    </mxGeometry>
                </mxCell>
                <mxCell id="174" value="" style="shape=tableRow;horizontal=0;startSize=0;swimlaneHead=0;swimlaneBody=0;top=0;left=0;bottom=0;right=0;collapsible=0;dropTarget=0;fillColor=none;points=[[0,0.5],[1,0.5]];portConstraint=eastwest;sketch=1;hachureGap=4;jiggle=2;curveFitting=1;fontFamily=Architects Daughter;fontSource=https%3A%2F%2Ffonts.googleapis.com%2Fcss%3Ffamily%3DArchitects%2BDaughter;fontSize=20;" parent="138" vertex="1">
                    <mxGeometry y="300" width="360" height="60" as="geometry"/>
                </mxCell>
                <mxCell id="175" value="" style="shape=partialRectangle;html=1;whiteSpace=wrap;connectable=0;overflow=hidden;fillColor=none;top=0;left=0;bottom=0;right=0;pointerEvents=1;sketch=1;hachureGap=4;jiggle=2;curveFitting=1;fontFamily=Helvetica;fontSize=20;" parent="174" vertex="1">
                    <mxGeometry width="60" height="60" as="geometry">
                        <mxRectangle width="60" height="60" as="alternateBounds"/>
                    </mxGeometry>
                </mxCell>
                <mxCell id="176" value="3" style="shape=partialRectangle;html=1;whiteSpace=wrap;connectable=0;overflow=hidden;fillColor=#60a917;top=0;left=0;bottom=0;right=0;pointerEvents=1;sketch=1;hachureGap=4;jiggle=2;curveFitting=1;fontFamily=Helvetica;fontSize=20;fontColor=#000000;strokeColor=#2D7600;" parent="174" vertex="1">
                    <mxGeometry x="60" width="60" height="60" as="geometry">
                        <mxRectangle width="60" height="60" as="alternateBounds"/>
                    </mxGeometry>
                </mxCell>
                <mxCell id="177" value="" style="shape=partialRectangle;html=1;whiteSpace=wrap;connectable=0;overflow=hidden;fillColor=#1ba1e2;top=0;left=0;bottom=0;right=0;pointerEvents=1;sketch=1;hachureGap=4;jiggle=2;curveFitting=1;fontFamily=Helvetica;fontSize=20;fontColor=#ffffff;strokeColor=#006EAF;" parent="174" vertex="1">
                    <mxGeometry x="120" width="60" height="60" as="geometry">
                        <mxRectangle width="60" height="60" as="alternateBounds"/>
                    </mxGeometry>
                </mxCell>
                <mxCell id="178" value="" style="shape=partialRectangle;html=1;whiteSpace=wrap;connectable=0;overflow=hidden;fillColor=none;top=0;left=0;bottom=0;right=0;pointerEvents=1;sketch=1;hachureGap=4;jiggle=2;curveFitting=1;fontFamily=Helvetica;fontSize=20;" parent="174" vertex="1">
                    <mxGeometry x="180" width="60" height="60" as="geometry">
                        <mxRectangle width="60" height="60" as="alternateBounds"/>
                    </mxGeometry>
                </mxCell>
                <mxCell id="179" value="" style="shape=partialRectangle;html=1;whiteSpace=wrap;connectable=0;overflow=hidden;fillColor=none;top=0;left=0;bottom=0;right=0;pointerEvents=1;sketch=1;hachureGap=4;jiggle=2;curveFitting=1;fontFamily=Helvetica;fontSize=20;" parent="174" vertex="1">
                    <mxGeometry x="240" width="60" height="60" as="geometry">
                        <mxRectangle width="60" height="60" as="alternateBounds"/>
                    </mxGeometry>
                </mxCell>
                <mxCell id="180" value="" style="shape=partialRectangle;html=1;whiteSpace=wrap;connectable=0;overflow=hidden;fillColor=none;top=0;left=0;bottom=0;right=0;pointerEvents=1;sketch=1;hachureGap=4;jiggle=2;curveFitting=1;fontFamily=Helvetica;fontSize=20;" parent="174" vertex="1">
                    <mxGeometry x="300" width="60" height="60" as="geometry">
                        <mxRectangle width="60" height="60" as="alternateBounds"/>
                    </mxGeometry>
                </mxCell>
                <mxCell id="182" value="" style="endArrow=classic;html=1;sketch=1;hachureGap=4;jiggle=2;curveFitting=1;fontFamily=Helvetica;fontSize=16;fontColor=#000000;edgeStyle=orthogonalEdgeStyle;entryX=0.583;entryY=-0.005;entryDx=0;entryDy=0;entryPerimeter=0;" parent="138" target="153" edge="1">
                    <mxGeometry width="50" height="50" relative="1" as="geometry">
                        <mxPoint x="93" y="32" as="sourcePoint"/>
                        <mxPoint x="211" y="86" as="targetPoint"/>
                        <Array as="points">
                            <mxPoint x="93" y="91"/>
                            <mxPoint x="210" y="91"/>
                        </Array>
                    </mxGeometry>
                </mxCell>
                <mxCell id="183" value="" style="endArrow=classic;html=1;sketch=1;hachureGap=4;jiggle=2;curveFitting=1;fontFamily=Helvetica;fontSize=16;fontColor=#000000;edgeStyle=orthogonalEdgeStyle;entryX=0.248;entryY=-0.015;entryDx=0;entryDy=0;entryPerimeter=0;" parent="138" target="174" edge="1">
                    <mxGeometry width="50" height="50" relative="1" as="geometry">
                        <mxPoint x="270" y="152" as="sourcePoint"/>
                        <mxPoint x="327.9100000000001" y="277.70000000000005" as="targetPoint"/>
                        <Array as="points">
                            <mxPoint x="270" y="273"/>
                            <mxPoint x="89" y="273"/>
                        </Array>
                    </mxGeometry>
                </mxCell>
                <mxCell id="181" value="分散存储" style="text;html=1;align=center;verticalAlign=middle;resizable=0;points=[];autosize=1;strokeColor=none;fillColor=none;fontSize=20;fontFamily=Helvetica;fontColor=#000000;sketch=1;hachureGap=4;jiggle=2;curveFitting=1;fontSource=https%3A%2F%2Ffonts.googleapis.com%2Fcss%3Ffamily%3DArchitects%2BDaughter;" parent="1" vertex="1">
                    <mxGeometry x="780" y="589" width="98" height="36" as="geometry"/>
                </mxCell>
            </root>
        </mxGraphModel>
    </diagram>
</mxfile>